<?xml version="1.0" encoding="UTF-8" standalone="no"?>
<!-- Created with Inkscape (http://www.inkscape.org/) -->

<svg
   width="512"
   height="512"
   viewBox="0 0 512 512"
   version="1.1"
   id="svg1"
   sodipodi:docname="icon.svg"
   inkscape:version="1.3.2 (091e20e, 2023-11-25, custom)"
   xml:space="preserve"
   xmlns:inkscape="http://www.inkscape.org/namespaces/inkscape"
   xmlns:sodipodi="http://sodipodi.sourceforge.net/DTD/sodipodi-0.dtd"
   xmlns="http://www.w3.org/2000/svg"
   xmlns:svg="http://www.w3.org/2000/svg"><sodipodi:namedview
     id="namedview1"
     pagecolor="#ffffff"
     bordercolor="#000000"
     borderopacity="0.25"
     inkscape:showpageshadow="2"
     inkscape:pageopacity="0.0"
     inkscape:pagecheckerboard="0"
     inkscape:deskcolor="#d1d1d1"
     inkscape:document-units="px"
     inkscape:zoom="1.1923828"
     inkscape:cx="196.66503"
     inkscape:cy="360.20311"
     inkscape:window-width="2560"
     inkscape:window-height="1417"
     inkscape:window-x="-8"
     inkscape:window-y="-8"
     inkscape:window-maximized="1"
     inkscape:current-layer="layer1"
     showguides="true"><sodipodi:guide
       position="369.45142,310.96624"
       orientation="1,0"
       id="guide8"
       inkscape:locked="false" /><sodipodi:guide
       position="141.13874,300.29188"
       orientation="1,0"
       id="guide9"
       inkscape:locked="false" /><inkscape:page
       x="0"
       y="0"
       width="512"
       height="512"
       id="page44"
       margin="0"
       bleed="0" /><inkscape:page
       x="522"
       y="0"
       width="393.66"
       height="393.66"
       id="page45"
       margin="0"
       bleed="0" /></sodipodi:namedview><defs
     id="defs1"><inkscape:path-effect
       effect="fillet_chamfer"
       id="path-effect6"
       is_visible="true"
       lpeversion="1"
       nodesatellites_param="F,0,0,1,0,100,0,1 @ F,0,0,1,0,100,0,1 @ F,0,0,1,0,100,0,1 @ F,0,0,1,0,100,0,1"
       radius="100"
       unit="px"
       method="auto"
       mode="F"
       chamfer_steps="1"
       flexible="false"
       use_knot_distance="true"
       apply_no_radius="true"
       apply_with_radius="true"
       only_selected="false"
       hide_knots="false" /><inkscape:path-effect
       effect="fillet_chamfer"
       id="path-effect103"
       is_visible="true"
       lpeversion="1"
       nodesatellites_param="F,0,0,1,0,97,0,15 @ F,0,0,1,0,97,0,15 @ F,0,0,1,0,97,0,15 @ F,0,0,1,0,97,0,15"
       radius="97"
       unit="px"
       method="auto"
       mode="F"
       chamfer_steps="15"
       flexible="false"
       use_knot_distance="true"
       apply_no_radius="true"
       apply_with_radius="true"
       only_selected="false"
       hide_knots="false" /><inkscape:path-effect
       effect="fillet_chamfer"
       id="path-effect101"
       is_visible="true"
       lpeversion="1"
       nodesatellites_param="F,0,0,1,0,36,0,1 @ F,0,0,1,0,36,0,1 @ F,0,0,1,0,36,0,1 @ F,0,0,1,0,36,0,1"
       radius="36"
       unit="px"
       method="auto"
       mode="F"
       chamfer_steps="1"
       flexible="false"
       use_knot_distance="true"
       apply_no_radius="true"
       apply_with_radius="true"
       only_selected="false"
       hide_knots="false" /><inkscape:path-effect
       effect="fillet_chamfer"
       id="path-effect5"
       is_visible="true"
       lpeversion="1"
       nodesatellites_param="F,0,0,1,0,62,0,1 @ F,0,0,1,0,0,0,1 @ F,0,0,1,0,62,0,1 @ F,0,0,1,0,62,0,1"
       radius="62"
       unit="px"
       method="auto"
       mode="F"
       chamfer_steps="1"
       flexible="false"
       use_knot_distance="true"
       apply_no_radius="true"
       apply_with_radius="true"
       only_selected="false"
       hide_knots="false" /><inkscape:path-effect
       effect="fillet_chamfer"
       id="path-effect4"
       is_visible="true"
       lpeversion="1"
       nodesatellites_param="F,0,0,1,0,0,0,1 @ F,0,0,1,0,0,0,1 @ F,0,0,1,0,0,0,1 @ F,0,0,1,0,0,0,1"
       radius="49"
       unit="px"
       method="auto"
       mode="F"
       chamfer_steps="1"
       flexible="false"
       use_knot_distance="true"
       apply_no_radius="false"
       apply_with_radius="false"
       only_selected="true"
       hide_knots="false" /><inkscape:path-effect
       effect="fillet_chamfer"
       id="path-effect3"
       is_visible="true"
       lpeversion="1"
       nodesatellites_param="F,0,0,1,0,0,0,1 @ F,0,0,1,0,0,0,1 @ F,0,0,1,0,0,0,1 @ F,0,0,1,0,0,0,1"
       radius="0"
       unit="px"
       method="auto"
       mode="F"
       chamfer_steps="1"
       flexible="false"
       use_knot_distance="true"
       apply_no_radius="true"
       apply_with_radius="true"
       only_selected="false"
       hide_knots="false" /><inkscape:path-effect
       effect="knot"
       id="path-effect2"
       is_visible="true"
       lpeversion="1"
       switcher_size="17.5"
       interruption_width="4.4"
       prop_to_stroke_width="true"
       add_stroke_width="inkscape_1.0_and_up"
       both="false"
       inverse_width="false"
       add_other_stroke_width="inkscape_1.0_and_up"
       crossing_points_vector="" /><inkscape:path-effect
       effect="fillet_chamfer"
       id="path-effect1"
       is_visible="true"
       lpeversion="1"
       nodesatellites_param="IC,0,0,1,0,39,0,2 @ IC,0,0,1,0,39,0,2 @ IC,0,0,1,0,39,0,2 @ IC,0,0,1,0,39,0,2"
       radius="39"
       unit="px"
       method="auto"
       mode="F"
       chamfer_steps="2"
       flexible="false"
       use_knot_distance="true"
       apply_no_radius="false"
       apply_with_radius="false"
       only_selected="true"
       hide_knots="false" /><filter
       style="color-interpolation-filters:sRGB;"
       inkscape:label="Drop Shadow"
       id="filter54"
       x="-0.065440106"
       y="-0.045195745"
       width="1.1308802"
       height="1.0903915"><feFlood
         result="flood"
         in="SourceGraphic"
         flood-opacity="0.498039"
         flood-color="rgb(0,0,0)"
         id="feFlood53" /><feGaussianBlur
         result="blur"
         in="SourceGraphic"
         stdDeviation="6.079027"
         id="feGaussianBlur53" /><feOffset
         result="offset"
         in="blur"
         dx="0.000000"
         dy="0.000000"
         id="feOffset53" /><feComposite
         result="comp1"
         operator="in"
         in="flood"
         in2="offset"
         id="feComposite53" /><feComposite
         result="comp2"
         operator="over"
         in="SourceGraphic"
         in2="comp1"
         id="feComposite54" /></filter><filter
       style="color-interpolation-filters:sRGB;"
       inkscape:label="Drop Shadow"
       id="filter56"
       x="-0.24669989"
       y="-0.24669989"
       width="1.4933998"
       height="1.4933998"><feFlood
         result="flood"
         in="SourceGraphic"
         flood-opacity="0.498039"
         flood-color="rgb(0,0,0)"
         id="feFlood54" /><feGaussianBlur
         result="blur"
         in="SourceGraphic"
         stdDeviation="5.000000"
         id="feGaussianBlur54" /><feOffset
         result="offset"
         in="blur"
         dx="0.000000"
         dy="0.000000"
         id="feOffset54" /><feComposite
         result="comp1"
         operator="in"
         in="flood"
         in2="offset"
         id="feComposite55" /><feComposite
         result="comp2"
         operator="over"
         in="SourceGraphic"
         in2="comp1"
         id="feComposite56" /></filter><filter
       style="color-interpolation-filters:sRGB;"
       inkscape:label="Drop Shadow"
       id="filter126"
       x="-0.27808467"
       y="-0.22867631"
       width="1.484267"
       height="1.5039578"><feFlood
         result="flood"
         in="SourceGraphic"
         flood-opacity="0.498039"
         flood-color="rgb(0,0,0)"
         id="feFlood125" /><feGaussianBlur
         result="blur"
         in="SourceGraphic"
         stdDeviation="13.981763"
         id="feGaussianBlur125" /><feOffset
         result="offset"
         in="blur"
         dx="-11.702127"
         dy="6.838906"
         id="feOffset125" /><feComposite
         result="comp1"
         operator="in"
         in="flood"
         in2="offset"
         id="feComposite125" /><feComposite
         result="comp2"
         operator="atop"
         in="comp1"
         in2="comp1"
         id="feComposite126" /></filter><filter
       style="color-interpolation-filters:sRGB"
       inkscape:label="Drop Shadow"
       id="filter56-2"
       x="-0.24669989"
       y="-0.24669989"
       width="1.4933998"
       height="1.4933998"><feFlood
         result="flood"
         in="SourceGraphic"
         flood-opacity="0.498039"
         flood-color="rgb(0,0,0)"
         id="feFlood54-1" /><feGaussianBlur
         result="blur"
         in="SourceGraphic"
         stdDeviation="5.000000"
         id="feGaussianBlur54-1" /><feOffset
         result="offset"
         in="blur"
         dx="0.000000"
         dy="0.000000"
         id="feOffset54-2" /><feComposite
         result="comp1"
         operator="in"
         in="flood"
         in2="offset"
         id="feComposite55-9" /><feComposite
         result="comp2"
         operator="over"
         in="SourceGraphic"
         in2="comp1"
         id="feComposite56-7" /></filter><filter
       style="color-interpolation-filters:sRGB"
       inkscape:label="Drop Shadow"
       id="filter56-7"
       x="-0.24669989"
       y="-0.24669989"
       width="1.4933998"
       height="1.4933998"><feFlood
         result="flood"
         in="SourceGraphic"
         flood-opacity="0.498039"
         flood-color="rgb(0,0,0)"
         id="feFlood54-9" /><feGaussianBlur
         result="blur"
         in="SourceGraphic"
         stdDeviation="5.000000"
         id="feGaussianBlur54-0" /><feOffset
         result="offset"
         in="blur"
         dx="0.000000"
         dy="0.000000"
         id="feOffset54-26" /><feComposite
         result="comp1"
         operator="in"
         in="flood"
         in2="offset"
         id="feComposite55-6" /><feComposite
         result="comp2"
         operator="over"
         in="SourceGraphic"
         in2="comp1"
         id="feComposite56-3" /></filter><filter
       style="color-interpolation-filters:sRGB;"
       inkscape:label="Drop Shadow"
       id="filter39"
       x="-0.0375"
       y="-0.0375"
       width="1.075"
       height="1.075"><feFlood
         result="flood"
         in="SourceGraphic"
         flood-opacity="0.498039"
         flood-color="rgb(0,0,0)"
         id="feFlood38" /><feGaussianBlur
         result="blur"
         in="SourceGraphic"
         stdDeviation="8.000000"
         id="feGaussianBlur38" /><feOffset
         result="offset"
         in="blur"
         dx="0.000000"
         dy="0.000000"
         id="feOffset38" /><feComposite
         result="comp1"
         operator="in"
         in="flood"
         in2="offset"
         id="feComposite38" /><feComposite
         result="comp2"
         operator="over"
         in="SourceGraphic"
         in2="comp1"
         id="feComposite39" /></filter><clipPath
       id="clipPath18"><path
         id="path20"
         d="m0 600h800v-600h-800v600z"
         inkscape:connector-curvature="0" /></clipPath></defs><g
     inkscape:label="Layer 1"
     inkscape:groupmode="layer"
     id="layer1"><path
       style="display:none;fill:#93afb7;fill-opacity:1;stroke-width:3.041;stroke-linecap:round;stroke-linejoin:round;filter:url(#filter39)"
       id="rect1"
       width="512"
       height="512"
       x="0"
       y="0"
       inkscape:path-effect="#path-effect6"
       sodipodi:type="rect"
       d="M 100,0 H 412 A 100,100 45 0 1 512,100 V 412 A 100,100 135 0 1 412,512 H 100 A 100,100 45 0 1 0,412 V 100 A 100,100 135 0 1 100,0 Z"
       transform="matrix(0.77555569,0,0,0.77555569,57.457744,57.457744)" /><circle
       style="fill:#93afb7;fill-opacity:1;stroke-width:3.80438;stroke-linecap:round;stroke-linejoin:round"
       id="path44"
       cx="256"
       cy="256"
       r="256" /><path
       d="M 46.527344,0 A 46.527062,36.510941 0 0 0 0,36.511719 V 475.48828 A 46.527062,36.510941 0 0 0 46.527344,512 H 465.47266 A 46.527062,36.510941 0 0 0 512,475.48828 V 159.32031 H 335.29687 V 0 Z"
       style="display:none;fill:#6e9f56;fill-opacity:1;stroke-width:3.041;stroke-linecap:round;stroke-linejoin:round"
       id="path102" /><path
       d="M 97,0 C 43.428379,0 0,43.428379 0,97 v 318 c 0,53.57162 43.428379,97 97,97 h 318 c 53.57162,0 97,-43.42838 97,-97 V 159.32031 H 348.34331 V 0 Z"
       style="display:none;fill:#569f78;fill-opacity:1;stroke-width:3.041;stroke-linecap:round;stroke-linejoin:round"
       id="path103"
       sodipodi:nodetypes="sssssscccs" /><path
       d="M 57.921716,3.582504 V 508.4175 H 454.07828 V 106.1273 H 340.34599 V 3.582504 Z"
       style="display:none;fill:#56949f;fill-opacity:1;stroke-width:3.11753;stroke-linecap:round;stroke-linejoin:round"
       id="path23" /><path
       id="path32"
       style="fill:#56949f;fill-opacity:1"
       d="m 0,0 c 0,0 -0.919,26.656 -1.379,39.064 -0.46,12.409 4.136,20.682 -1.839,32.171 -5.974,11.49 -1.379,20.682 -6.893,21.141 -5.515,0.459 -22.979,3.677 -32.63,0 -9.652,-3.677 -30.793,12.409 -31.252,22.979 -0.459,10.57 -3.676,18.383 -3.676,18.383 0,0 11.949,19.262 15.166,18.593 3.217,-0.669 3.677,12.199 5.975,13.118 2.298,0.92 26.655,7.354 33.549,7.354 6.893,0 1.838,-7.354 1.838,-7.354 L 0,157.639 l 3.677,8.273 18.383,-5.515 c 0,0 -0.459,11.03 -4.596,12.409 -4.137,1.378 -21.601,9.651 -21.601,9.651 0,0 3.678,-6.894 1.839,-8.732 -1.839,-1.839 -7.813,8.732 -7.813,8.732 l -13.327,5.055 c 0,0 -9.192,-1.379 -14.248,-3.217 -5.055,-1.838 -7.353,-10.57 -7.353,-10.57 0,0 -9.191,-4.596 -15.166,-3.217 -5.975,1.378 -4.137,12.868 -4.137,12.868 0,0 11.03,0.919 11.949,4.136 0.919,3.217 -7.812,9.192 -7.812,9.192 l 6.893,3.217 6.434,11.232 10.111,-1.122 3.217,11.95 -0.807,11.806 c 0,0 67.293,-31.638 88.51,-83.995 l -10.953,6.928 4.596,-10.111 1.838,1.379 5.515,-10.11 v -8.273 l -2.757,-12.71 c 0,0 -17.515,29.546 -25.737,37.068 0,0 11.957,-27.574 26.197,-41.822 l 4.595,4.754 V 94.662 L 53.311,85.01 48.256,69.844 47.336,57.895 V 43.648 L 40.442,36.755 33.549,31.699 V 25.724 L 26.655,16.521 17.004,6.411 7.353,-0.024 H 0 Z"
       inkscape:connector-curvature="0"
       transform="matrix(1.6258097,0,0,-1.6258097,398.98478,397.36417)" /><path
       id="path36"
       style="fill:#56949f;fill-opacity:1"
       d="m 0,0 -9.191,11.949 1.379,6.435 h 5.974 L -3.112,24.973 -1.378,33.55 0,39.983 5.199,45.39 c 0,0 11.807,4.705 10.428,21.25 0,0 10.109,13.788 7.812,21.14 -2.298,7.353 -16.145,6.894 -16.145,6.894 l -22.919,9.651 c 0,0 -1.838,9.652 -8.272,10.571 -6.435,0.918 -8.273,-3.677 -11.031,0 -2.758,3.676 -6.576,9.194 -13.858,9.652 -7.282,0.458 -16.474,6.432 -16.474,6.432 0,0 -1.379,5.055 -9.191,3.217 0,0 -5.056,5.056 -2.758,15.167 0,0 -0.459,5.515 -7.354,3.217 0,0 -5.514,5.975 -7.353,5.975 -1.838,0 -4.596,17.464 3.678,25.277 0,0 7.812,9.191 16.545,3.676 0,0 -0.461,-8.732 0.918,-12.868 1.379,-4.136 4.136,5.975 4.136,5.975 l 0.46,12.868 c 0,0 5.975,2.758 11.031,7.353 5.054,4.596 3.216,10.571 10.11,15.166 6.893,4.596 8.272,0 8.272,0 l 0.459,7.813 h 6.435 l 15.626,6.894 c 0,0 -7.354,-0.46 -10.111,3.677 l 19.761,10.57 v 5.974 l -1.355,12.409 -4.619,-5.515 -0.918,5.515 -8.733,1.121 h -3.216 l -7.354,-3.419 -0.46,-4.596 -8.272,-3.676 -4.137,4.136 3.218,4.136 3.216,3.419 8.566,11.597 c 0,0 -56.809,-31.864 -73.36,-88.241 0,0 -0.925,-17.772 -1.384,-24.206 -0.46,-6.434 5.054,-12.408 5.054,-12.408 h 5.056 l 1.838,-4.596 4.136,-1.379 2.299,-1.379 1.378,-3.583 1.838,-6.528 4.137,-0.92 2.297,-4.135 2.758,-0.46 -0.919,3.676 h 3.677 l 1.378,-3.216 -4.136,-3.217 -1.379,-3.218 -0.459,-7.352 0.459,-5.516 0.46,-5.055 -4.136,-2.298 0.918,-5.055 0.461,-3.217 v -5.056 l -2.299,-0.919 16.545,-22.519 5.056,-1.839 3.216,-0.459 5.056,-1.839 4.137,-7.812 c 0,0 13.327,-29.415 15.166,-33.55 C -27.574,15.638 -8.271,-1.367 0,0.012"
       inkscape:connector-curvature="0"
       transform="matrix(1.6258097,0,0,-1.6258097,182.91466,482.42653)" /><text
       xml:space="preserve"
       style="font-size:420.825px;font-family:Arvo;-inkscape-font-specification:Arvo;fill:#faf4ed;fill-opacity:1;stroke:none;stroke-width:3.041;stroke-linecap:round;stroke-linejoin:round;stroke-dasharray:none;stroke-opacity:1;filter:url(#filter54)"
       x="136.91678"
       y="382.33322"
       id="text23"
       transform="matrix(1.0439457,0,0,1.0439457,-39.83636,19.464189)"><tspan
         sodipodi:role="line"
         id="tspan23"
         x="136.91678"
         y="382.33322"
         style="font-size:420.825px">L</tspan></text><circle
       style="display:inline;fill:#faf4ed;fill-opacity:1;stroke:none;stroke-width:3.041;stroke-linecap:round;stroke-linejoin:round;stroke-dasharray:none;stroke-opacity:1;filter:url(#filter56)"
       id="path24"
       cx="335.67279"
       cy="235.20886"
       r="24.321049"
       transform="matrix(1.1955815,0,0,1.1955815,-42.514453,-23.329236)" /><circle
       style="display:none;fill:#faf4ed;fill-opacity:1;stroke:none;stroke-width:3.041;stroke-linecap:round;stroke-linejoin:round;stroke-dasharray:none;stroke-opacity:1;filter:url(#filter56-7)"
       id="path24-4"
       cx="335.67279"
       cy="235.20886"
       r="24.321049"
       transform="matrix(1.2867951,0,0,1.2867951,-275.45259,-12.690448)" /><g
       id="layer1-3"
       inkscape:label="Layer 1"
       transform="matrix(1.3006478,0,0,1.3006478,-583.84648,-700.87032)"
       style="display:none"><g
         id="g14"
         transform="matrix(1.25,0,0,-1.25,145.71,1110.2)"><g
           id="g16"
           clip-path="url(#clipPath18)"><g
             id="g22"
             transform="translate(554.43,299.61)"><path
               id="path3655"
               d="m 3.0332,0 c 0,-86.965 -70.498,-157.46 -157.46,-157.46 -86.963,0 -157.46,70.497 -157.46,157.46 0,86.964 70.498,157.46 157.46,157.46 86.965,0 157.46,-70.496 157.46,-157.46"
               style="fill:#2c89a0"
               inkscape:connector-curvature="0" /><path
               id="path24-1"
               style="fill:#7cb7ed"
               d="m 0,0 c 0,-85.29 -69.14,-154.43 -154.43,-154.43 -85.288,0 -154.43,69.139 -154.43,154.43 0,85.289 69.14,154.43 154.43,154.43 C -69.14,154.43 0,85.289 0,0"
               inkscape:connector-curvature="0" /></g><g
             id="g26"
             transform="translate(447,151.47)"><path
               id="path28"
               style="fill:#ffffff"
               d="m 0,0 c 0,0 -48.604,-15.479 -97.901,1.301 0,0 28.344,4.175 41.625,11.737 C -42.995,20.601 0,0 0,0"
               inkscape:connector-curvature="0" /></g><g
             id="g30"
             transform="translate(487.95,212.66)" /><g
             id="g34"
             transform="translate(355.05,160.34)" /><g
             id="g38"
             transform="translate(400,455.04)"><path
               id="path40"
               style="fill:#ffffff"
               d="m 0,0 c 51.067,0 79.29,-21.887 79.29,-21.887 0,0 -18.978,-8.148 -48.391,0 0,0 -22.689,-1.096 -38.656,-7.819 -15.966,-6.723 -24.437,10.924 -24.437,10.924 0,0 -13.981,-9.608 -38.049,1.919 0,0 31.781,16.863 70.243,16.863"
               inkscape:connector-curvature="0" /></g></g></g></g><text
       xml:space="preserve"
       style="font-size:420.825px;font-family:Arvo;-inkscape-font-specification:Arvo;display:none;fill:#faf4ed;fill-opacity:1;stroke:none;stroke-width:3.041;stroke-linecap:round;stroke-linejoin:round;stroke-dasharray:none;stroke-opacity:1;filter:url(#filter54)"
       x="136.91678"
       y="382.33322"
       id="text45"
       transform="matrix(1.1494532,0,0,1.1494532,-49.752795,-2.7824946)"><tspan
         sodipodi:role="line"
         id="tspan45"
         x="136.91678"
         y="382.33322"
         style="font-size:420.825px">S</tspan></text></g></svg>
